<svg id="图层_1" data-name="图层 1" xmlns="http://www.w3.org/2000/svg" viewBox="0 0 420.27 344.02"><defs><style>.cls-1{fill:#fff;}</style></defs><path class="cls-1" d="M111-15.89h37.64c23.88,0,40.9,8,40.9,27.15,0,12.67-9,24.25-25.34,29.31l-.36.73c13.39,3.26,19.9,10.49,19.9,21.35,0,28.23-24.24,39.09-51.75,39.09H87.5Zm23.16,95.55c14.48,0,21.72-6.15,21.72-15.92,0-8.69-5.07-13-15.93-13H126.59L120.8,79.66Zm6.15-48.5c14.12,0,19.55-5.79,19.55-14.83,0-6.52-5.07-10.14-15.93-10.14h-8.32l-5.07,25Z" transform="translate(-87.5 30)"/><path class="cls-1" d="M244.54,9.09c22.08,0,30,15.56,30,34.38,0,9.05-3.61,19.18-5.06,21.72H220.66c.36,11.94,8.32,17,18.82,17,5.06,0,11.22-2.9,15.2-5.79L264.81,94.5c-7.24,5.07-18.82,9.41-33.66,9.41-22.08,0-37.64-14.84-37.64-39.09C193.51,31.53,220.29,9.09,244.54,9.09Zm5.79,38.72a24.66,24.66,0,0,0,.73-5.79c0-6.15-2.53-10.86-10.13-10.86-6.88,0-14.12,5.07-18.1,16.65Z" transform="translate(-87.5 30)"/><path class="cls-1" d="M273,126.71l12.31-19.18c6.88,5.07,14.48,9,22.44,9,10.5,0,17.92-5.25,21.35-15.92l4.71-14.84c-7.6,8-17,12.3-26.42,12.3-15.2,0-26.42-10.13-26.42-31.49C280.94,34.42,303,9.09,328,9.09c7.6,0,15.2,4.34,18.46,11.22h.36l4-9h23.53L356.94,98.12C351.33,126,333.42,139.38,307,139.38,296.86,139.38,283.83,135.4,273,126.71Zm61.9-62.25,4.7-25c-2.17-4.71-6.15-6.88-9.41-6.88C319.66,32.61,311,44.92,311,63c0,8,3.26,11.59,8,11.59C324,74.6,330.16,72.79,334.87,64.46Z" transform="translate(-87.5 30)"/><path class="cls-1" d="M389,11.26h29l-18.1,90.48H370.88Zm4-25C393-22.4,400.55-30,410.33-30c7.6,0,15.2,4.7,15.2,13.39,0,9.41-7.6,16.29-17.37,16.29C400.55-.32,393-4.67,393-13.71Z" transform="translate(-87.5 30)"/><path class="cls-1" d="M432.13,11.26h23.53V22.84h.72c8.33-7.24,18.46-13.75,30-13.75,14.84,0,21.36,8,21.36,23.52a67.15,67.15,0,0,1-1.45,13l-11.22,56.1h-29l10.5-52.48c.72-3.26,1.45-5.79,1.45-8,0-5.07-2.9-7.6-7.6-7.6-5.07,0-9.41,3.26-15.93,10.13l-11.22,57.91h-29Z" transform="translate(-87.5 30)"/><path class="cls-1" d="M111,158.75h37.64c23.88,0,40.9,8,40.9,27.14,0,12.67-9,24.25-25.34,29.32l-.36.72c13.39,3.26,19.9,10.5,19.9,21.36,0,28.23-24.24,39.09-51.75,39.09H87.5Zm23.16,95.55c14.48,0,21.72-6.15,21.72-15.93,0-8.68-5.07-13-15.93-13H126.59l-5.79,29Zm6.15-48.5c14.12,0,19.55-5.79,19.55-14.84,0-6.52-5.07-10.13-15.93-10.13h-8.32l-5.07,25Z" transform="translate(-87.5 30)"/><path class="cls-1" d="M207.19,185.89h29l-18.1,90.49h-29Zm4-25c0-8.69,7.6-16.29,17.38-16.29,7.6,0,15.2,4.71,15.2,13.39,0,9.41-7.6,16.29-17.37,16.29C218.77,174.31,211.17,170,211.17,160.92Z" transform="translate(-87.5 30)"/><path class="cls-1" d="M229,301.35l12.31-19.18c6.87,5.06,14.47,9,22.44,9,10.49,0,17.91-5.24,21.35-15.92l4.71-14.84c-7.6,8-17,12.31-26.43,12.31-15.2,0-26.42-10.14-26.42-31.49,0-32.21,22.08-57.55,47.05-57.55,7.61,0,15.21,4.34,18.46,11.22h.36l4-9.05H330.3l-17.37,86.87C307.32,300.63,289.4,314,263,314,252.85,314,239.82,310,229,301.35Zm61.89-62.25,4.71-25c-2.18-4.7-6.16-6.87-9.41-6.87-10.5,0-19.19,12.3-19.19,30.4,0,8,3.26,11.58,8,11.58C280,249.23,286.15,247.42,290.85,239.1Z" transform="translate(-87.5 30)"/><path class="cls-1" d="M339.57,263.35c0-9.78,8-20.27,19.91-20.27,8.68,0,14.47,6.51,14.47,15.2,0,10.13-8,20.27-19.9,20.27C345.36,278.55,339.57,272.39,339.57,263.35Z" transform="translate(-87.5 30)"/></svg>